#tb 0: 1/48000
#media_type 0: audio
#codec_id 0: pcm_s16le
#sample_rate 0: 48000
#channel_layout_name 0: stereo
0,          0,          0,     5120,    20480, 0xdf2a75f9
0,       5120,       5120,     5120,    20480, 0xc795a74d
0,      10240,      10240,     5120,    20480, 0x811c7f80
0,      15360,      15360,     5120,    20480, 0x526ae46a
0,      20480,      20480,     5120,    20480, 0xf6c0f8a3
0,      25600,      25600,     5120,    20480, 0x5132a80d
0,      30720,      30720,     5120,    20480, 0x21094859
0,      35840,      35840,     5120,    20480, 0xd1e17d71
0,      40960,      40960,     5120,    20480, 0x8e7f3bf3
0,      46080,      46080,     5120,    20480, 0x9ac6e033
0,      51200,      51200,     5120,    20480, 0x26c08453
0,      56320,      56320,     5120,    20480, 0x2f379d09
0,      61440,      61440,     5120,    20480, 0x7152f6b6
0,      66560,      66560,     5120,    20480, 0x381c44ea
0,      71680,      71680,     5120,    20480, 0xfe8ba205
0,      76800,      76800,     5120,    20480, 0xebbf593b
0,      81920,      81920,     5120,    20480, 0x30672f9b
0,      87040,      87040,     5120,    20480, 0x553021d3
0,      92160,      92160,     5120,    20480, 0x9e2b135d
0,      97280,      97280,     5120,    20480, 0x9c419431
0,     102400,     102400,     5120,    20480, 0x30e7988b
0,     107520,     107520,     5120,    20480, 0xa48f824b
0,     112640,     112640,     5120,    20480, 0xfb72eef4
0,     117760,     117760,     5120,    20480, 0x2b9065c2
0,     122880,     122880,     5120,    20480, 0x0d9e0f0f
0,     128000,     128000,     5120,    20480, 0x068eef81
0,     133120,     133120,     5120,    20480, 0xc1ae69f2
0,     138240,     138240,     5120,    20480, 0xbdf90ed2
0,     143360,     143360,     5120,    20480, 0xd071f1ea
0,     148480,     148480,     2140,     8560, 0xf64370aa
